
      <svg data-logo="logo" xmlns="http://www.w3.org/2000/svg" viewBox="0 0 266 43" fill="#f1efee">
        <g id="logogram" transform="translate(0, 1) rotate(0) "><path d="M18.529 14.2867C19.7573 13.9362 19.8794 10.5388 18.8016 6.69839C17.7239 2.85797 15.8544 0.0288177 14.6261 0.379292C13.3977 0.729766 13.2757 4.12714 14.3534 7.96759C15.4312 11.8079 17.3007 14.6371 18.529 14.2867Z"/><path d="M26.1248 8.08707C27.2775 4.26882 27.2219 0.869674 26.0007 0.49485C24.7794 0.120017 22.855 2.91144 21.7023 6.72968C20.5497 10.5479 20.6052 13.9471 21.8265 14.3219C23.0477 14.6967 24.9722 11.9053 26.1248 8.08707Z"/><path d="M15.7317 16.0579C16.5771 15.0934 14.858 12.1689 11.8921 9.5258C8.92614 6.88272 5.83646 5.52194 4.99109 6.48642C4.14571 7.45092 5.86478 10.3754 8.83075 13.0185C11.7967 15.6616 14.8864 17.0224 15.7317 16.0579Z"/><path d="M31.5523 13.2463C34.5689 10.6622 36.3444 7.77208 35.5178 6.79115C34.6913 5.81019 31.5758 7.10985 28.5592 9.6939C25.5426 12.278 23.7672 15.1681 24.5937 16.1491C25.4202 17.13 28.5357 15.8304 31.5523 13.2463Z"/><path d="M14.3271 19.0886C14.5213 17.8164 11.5072 16.2928 7.5951 15.6857C3.68285 15.0785 0.353953 15.6177 0.15976 16.8899C-0.0344332 18.1621 2.97961 19.6855 6.89183 20.2927C10.804 20.8999 14.1329 20.3607 14.3271 19.0886Z"/><path d="M33.3469 20.5473C37.2702 20.018 40.3134 18.5548 40.1441 17.2789C39.9749 16.0031 36.6572 15.398 32.7338 15.9271C28.8106 16.4564 25.7673 17.9197 25.9366 19.1955C26.1059 20.4713 29.4235 21.0765 33.3469 20.5473Z"/><path d="M9.1521 27.4532C12.7688 25.8311 15.28 23.5628 14.7611 22.3867C14.2424 21.2106 10.89 21.5722 7.2733 23.1943C3.65667 24.8164 1.1454 27.0847 1.66421 28.2608C2.18302 29.4369 5.53546 29.0753 9.1521 27.4532Z"/><path d="M38.408 28.6255C38.9497 27.46 36.4833 25.1421 32.8991 23.4484C29.3149 21.7547 25.9702 21.3266 25.4285 22.4921C24.8868 23.6577 27.3532 25.9755 30.9374 27.6692C34.5215 29.3629 37.8663 29.7911 38.408 28.6255Z"/><path d="M14.9029 32.2399C17.0755 28.9036 17.9717 25.6262 16.9047 24.9198C15.8375 24.2133 13.2112 26.3451 11.0387 29.6814C8.86604 33.0177 7.96985 36.2949 9.03689 37.0015C10.104 37.708 12.7302 35.5762 14.9029 32.2399Z"/><path d="M30.8687 37.2253C31.9494 36.5402 31.1175 33.2456 29.0106 29.8668C26.9036 26.488 24.3195 24.3044 23.2388 24.9895C22.1582 25.6746 22.9901 28.9692 25.097 32.348C27.2039 35.7268 29.7881 37.9105 30.8687 37.2253Z"/><path d="M22.3061 33.1463C22.3448 29.1553 21.3414 25.9098 20.0649 25.8972C18.7884 25.8846 17.7222 29.1098 17.6835 33.1007C17.6448 37.0918 18.6483 40.3374 19.9247 40.3499C21.2013 40.3625 22.2675 37.1374 22.3061 33.1463Z"/></g>
        <g id="logotype" transform="translate(47, 8.5)"><path d="M13.52 26L8.31 26L8.31 0.54L25.06 0.54L25.06 4.86L13.52 4.86L13.52 11.97L23.93 11.97L23.93 16.22L13.52 16.22L13.52 26ZM35.08 26.38L35.08 26.38Q32.16 26.38 30.04 25.18Q27.92 23.98 26.79 21.78Q25.65 19.57 25.65 16.55L25.65 16.55Q25.65 13.59 26.78 11.37Q27.91 9.15 29.98 7.90Q32.04 6.65 34.83 6.65L34.83 6.65Q36.71 6.65 38.33 7.25Q39.96 7.85 41.19 9.06Q42.42 10.26 43.11 12.07Q43.80 13.88 43.80 16.34L43.80 16.34L43.80 17.78L27.75 17.78L27.75 14.57L41.29 14.57L38.90 15.42Q38.90 13.93 38.44 12.83Q37.99 11.73 37.09 11.12Q36.20 10.52 34.86 10.52L34.86 10.52Q33.55 10.52 32.62 11.13Q31.68 11.75 31.21 12.80Q30.73 13.85 30.73 15.20L30.73 15.20L30.73 17.47Q30.73 19.13 31.28 20.26Q31.84 21.39 32.84 21.95Q33.84 22.51 35.17 22.51L35.17 22.51Q36.08 22.51 36.81 22.26Q37.55 22.00 38.07 21.50Q38.59 20.99 38.86 20.26L38.86 20.26L43.51 21.13Q43.05 22.70 41.90 23.89Q40.76 25.08 39.04 25.73Q37.32 26.38 35.08 26.38ZM50.36 26.38L50.36 26.38Q48.55 26.38 47.11 25.74Q45.66 25.09 44.83 23.82Q44.00 22.55 44.00 20.65L44.00 20.65Q44.00 19.06 44.59 17.98Q45.18 16.91 46.20 16.26Q47.22 15.61 48.51 15.27Q49.80 14.93 51.22 14.79L51.22 14.79Q52.87 14.62 53.89 14.47Q54.91 14.33 55.38 14.01Q55.85 13.70 55.85 13.08L55.85 13.08L55.85 12.99Q55.85 12.17 55.51 11.61Q55.16 11.05 54.50 10.75Q53.83 10.45 52.86 10.45L52.86 10.45Q51.87 10.45 51.13 10.75Q50.40 11.05 49.93 11.54Q49.47 12.04 49.25 12.65L49.25 12.65L44.55 11.87Q45.05 10.21 46.19 9.05Q47.34 7.88 49.04 7.27Q50.74 6.65 52.86 6.65L52.86 6.65Q54.41 6.65 55.86 7.02Q57.32 7.39 58.47 8.16Q59.62 8.93 60.30 10.16Q60.97 11.39 60.97 13.13L60.97 13.13L60.97 26L56.12 26L56.12 23.35L55.95 23.35Q55.49 24.24 54.72 24.91Q53.95 25.59 52.86 25.98Q51.78 26.38 50.36 26.38ZM51.81 22.77L51.81 22.77Q53.03 22.77 53.94 22.29Q54.86 21.81 55.37 20.99Q55.88 20.17 55.88 19.16L55.88 19.16L55.88 17.10Q55.66 17.27 55.20 17.40Q54.74 17.54 54.17 17.64Q53.61 17.75 53.06 17.83Q52.51 17.92 52.09 17.97L52.09 17.97Q51.15 18.10 50.43 18.41Q49.71 18.72 49.32 19.22Q48.93 19.73 48.93 20.51L48.93 20.51Q48.93 21.25 49.30 21.75Q49.68 22.26 50.32 22.51Q50.96 22.77 51.81 22.77ZM61.23 6.89L72.56 6.89L72.56 10.81L61.23 10.81L61.23 6.89ZM63.86 20.86L63.86 2.35L68.99 2.35L68.99 20.41Q68.99 21.32 69.39 21.75Q69.79 22.19 70.73 22.19L70.73 22.19Q71.02 22.19 71.55 22.11Q72.08 22.04 72.35 21.97L72.35 21.97L73.09 25.81Q72.23 26.07 71.39 26.17Q70.54 26.27 69.77 26.27L69.77 26.27Q66.90 26.27 65.38 24.87Q63.86 23.47 63.86 20.86L63.86 20.86ZM80.20 26.24L80.20 26.24Q78.21 26.24 76.73 25.38Q75.24 24.51 74.43 22.90Q73.62 21.28 73.62 19.04L73.62 19.04L73.62 6.89L78.74 6.89L78.74 18.16Q78.74 19.93 79.67 20.94Q80.59 21.95 82.20 21.95L82.20 21.95Q83.29 21.95 84.13 21.48Q84.96 21.01 85.43 20.11Q85.90 19.22 85.90 17.95L85.90 17.95L85.90 6.89L91.03 6.89L91.03 26L86.19 26L86.13 21.23L86.42 21.23Q85.66 23.64 84.12 24.94Q82.57 26.24 80.20 26.24ZM98.26 26L93.13 26L93.13 6.89L98.09 6.89L98.09 10.23L98.29 10.23Q98.82 8.45 100.06 7.54Q101.30 6.64 102.91 6.64L102.91 6.64Q103.30 6.64 103.75 6.68Q104.21 6.72 104.56 6.81L104.56 6.81L104.56 11.39Q104.22 11.27 103.57 11.20Q102.92 11.13 102.34 11.13L102.34 11.13Q101.18 11.13 100.24 11.64Q99.30 12.14 98.78 13.04Q98.26 13.93 98.26 15.13L98.26 15.13L98.26 26ZM113.74 26.38L113.74 26.38Q110.82 26.38 108.70 25.18Q106.58 23.98 105.44 21.78Q104.31 19.57 104.31 16.55L104.31 16.55Q104.31 13.59 105.43 11.37Q106.56 9.15 108.63 7.90Q110.70 6.65 113.48 6.65L113.48 6.65Q115.36 6.65 116.99 7.25Q118.61 7.85 119.84 9.06Q121.07 10.26 121.76 12.07Q122.45 13.88 122.45 16.34L122.45 16.34L122.45 17.78L106.41 17.78L106.41 14.57L119.94 14.57L117.55 15.42Q117.55 13.93 117.10 12.83Q116.64 11.73 115.75 11.12Q114.85 10.52 113.52 10.52L113.52 10.52Q112.20 10.52 111.27 11.13Q110.34 11.75 109.86 12.80Q109.38 13.85 109.38 15.20L109.38 15.20L109.38 17.47Q109.38 19.13 109.94 20.26Q110.49 21.39 111.49 21.95Q112.49 22.51 113.82 22.51L113.82 22.51Q114.73 22.51 115.47 22.26Q116.20 22.00 116.72 21.50Q117.24 20.99 117.52 20.26L117.52 20.26L122.16 21.13Q121.70 22.70 120.56 23.89Q119.41 25.08 117.70 25.73Q115.98 26.38 113.74 26.38ZM134.55 26L123.80 26L123.80 0.54L133.90 0.54Q136.71 0.54 138.58 1.38Q140.45 2.23 141.38 3.70Q142.31 5.17 142.31 7.08L142.31 7.08Q142.31 8.59 141.71 9.70Q141.12 10.82 140.08 11.53Q139.05 12.24 137.73 12.55L137.73 12.55L137.73 12.81Q139.17 12.86 140.44 13.62Q141.71 14.38 142.51 15.74Q143.30 17.10 143.30 18.99L143.30 18.99Q143.30 20.99 142.31 22.58Q141.32 24.17 139.38 25.09Q137.44 26 134.55 26L134.55 26ZM129.02 14.81L129.02 21.71L133.53 21.71Q135.82 21.71 136.88 20.82Q137.94 19.93 137.94 18.50L137.94 18.50Q137.94 17.40 137.42 16.57Q136.89 15.75 135.94 15.28Q134.98 14.81 133.66 14.81L133.66 14.81L129.02 14.81ZM129.02 4.79L129.02 11.23L133.13 11.23Q134.24 11.23 135.13 10.83Q136.02 10.43 136.53 9.69Q137.03 8.94 137.03 7.92L137.03 7.92Q137.03 6.53 136.05 5.66Q135.07 4.79 133.24 4.79L133.24 4.79L129.02 4.79ZM153.20 26.38L153.20 26.38Q150.27 26.38 148.15 25.18Q146.03 23.98 144.90 21.78Q143.76 19.57 143.76 16.55L143.76 16.55Q143.76 13.59 144.89 11.37Q146.02 9.15 148.09 7.90Q150.15 6.65 152.94 6.65L152.94 6.65Q154.82 6.65 156.44 7.25Q158.07 7.85 159.30 9.06Q160.53 10.26 161.22 12.07Q161.91 13.88 161.91 16.34L161.91 16.34L161.91 17.78L145.86 17.78L145.86 14.57L159.40 14.57L157.01 15.42Q157.01 13.93 156.55 12.83Q156.10 11.73 155.20 11.12Q154.31 10.52 152.97 10.52L152.97 10.52Q151.66 10.52 150.73 11.13Q149.79 11.75 149.32 12.80Q148.84 13.85 148.84 15.20L148.84 15.20L148.84 17.47Q148.84 19.13 149.39 20.26Q149.95 21.39 150.95 21.95Q151.95 22.51 153.28 22.51L153.28 22.51Q154.19 22.51 154.92 22.26Q155.66 22.00 156.18 21.50Q156.70 20.99 156.97 20.26L156.97 20.26L161.62 21.13Q161.16 22.70 160.01 23.89Q158.87 25.08 157.15 25.73Q155.43 26.38 153.20 26.38ZM168.27 14.94L168.27 14.94L168.27 26L163.14 26L163.14 6.89L167.98 6.89L168.06 11.66L167.75 11.66Q168.51 9.27 170.04 7.96Q171.57 6.65 173.99 6.65L173.99 6.65Q175.97 6.65 177.44 7.52Q178.91 8.38 179.73 10.00Q180.55 11.61 180.55 13.85L180.55 13.85L180.55 26L175.43 26L175.43 14.74Q175.43 12.96 174.51 11.95Q173.60 10.94 171.98 10.94L171.98 10.94Q170.90 10.94 170.05 11.41Q169.21 11.88 168.74 12.77Q168.27 13.66 168.27 14.94ZM191.20 26.38L191.20 26.38Q188.31 26.38 186.22 25.14Q184.12 23.90 182.99 21.68Q181.85 19.47 181.85 16.53L181.85 16.53Q181.85 13.56 182.99 11.35Q184.12 9.13 186.22 7.89Q188.31 6.65 191.20 6.65L191.20 6.65Q192.89 6.65 194.33 7.10Q195.76 7.54 196.87 8.36Q197.98 9.18 198.70 10.36Q199.42 11.54 199.69 13.01L199.69 13.01L194.92 13.90Q194.77 13.15 194.45 12.56Q194.12 11.97 193.66 11.55Q193.20 11.13 192.59 10.91Q191.99 10.69 191.25 10.69L191.25 10.69Q189.88 10.69 188.95 11.42Q188.02 12.16 187.55 13.47Q187.08 14.79 187.08 16.52L187.08 16.52Q187.08 18.22 187.55 19.53Q188.02 20.84 188.95 21.59Q189.88 22.34 191.25 22.34L191.25 22.34Q191.99 22.34 192.60 22.11Q193.22 21.88 193.69 21.45Q194.17 21.01 194.50 20.39Q194.82 19.78 194.96 19.01L194.96 19.01L199.73 19.88Q199.45 21.40 198.74 22.59Q198.02 23.78 196.91 24.63Q195.80 25.49 194.35 25.93Q192.91 26.38 191.20 26.38ZM206.10 14.94L206.10 14.94L206.10 26L200.97 26L200.97 0.54L206.00 0.54L206.00 11.66L205.59 11.66Q206.34 9.27 207.87 7.96Q209.40 6.65 211.82 6.65L211.82 6.65Q213.81 6.65 215.29 7.52Q216.76 8.38 217.58 10.00Q218.39 11.61 218.39 13.85L218.39 13.85L218.39 26L213.26 26L213.26 14.74Q213.26 12.96 212.35 11.95Q211.43 10.94 209.81 10.94L209.81 10.94Q208.73 10.94 207.89 11.41Q207.04 11.88 206.57 12.77Q206.10 13.66 206.10 14.94Z"/></g>
      </svg>
